General
Complete name                    : Ghosts of Girlfriends Past.mkv
Format                           : Matroska
File size                        : 946 MiB
Duration                         : 1h 36mn
Overall bit rate                 : 1 370 Kbps
Writing application              : HandBrake 0.9.4

Video
ID                               : 1
Format                           : AVC
Duration                         : 1h 36mn
Bit rate                         : 895 Kbps
Width                            : 720 pixels
Height                           : 428 pixels
Display aspect ratio             : 2.35:1
Frame rate                       : 25.000 fps
Resolution                       : 8 bits
Colorimetry                      : 4:2:0
Scan type                        : Progressive
Bits/(Pixel*Frame)               : 0.116
Stream size                      : 618 MiB (65%)
Writing library                  : x264 core 79


Audio
ID                               : 2
Format                           : AC-3
Format/Info                      : Audio Coding 3
Codec ID                         : A_AC3
Duration                         : 1h 36mn
Bit rate mode                    : Constant
Bit rate                         : 448 Kbps
Channel(s)                       : 6 channels
Channel positions                : Front: L C R, Side: L R, LFE
Sampling rate                    : 48.0 KHz
Stream size                      : 309 MiB (33%)
Language                         : English

Text #1
ID                               : 3
Language                         : English

Text #2
ID                               : 4
Language                         : Swedish

Text #3
ID                               : 5
Language                         : Norwegian

Text #4
ID                               : 6
Language                         : Danish

Text #5
ID                               : 7
Language                         : Finnish

Menu
00:00:00.000                     : Chapter 1
00:03:02.040                     : Chapter 2

